<?xml version="1.0" encoding="UTF-8" standalone="no"?>
<!-- Created with Inkscape (http://www.inkscape.org/) -->

<svg
   xmlns:dc="http://purl.org/dc/elements/1.1/"
   xmlns:cc="http://creativecommons.org/ns#"
   xmlns:rdf="http://www.w3.org/1999/02/22-rdf-syntax-ns#"
   xmlns:svg="http://www.w3.org/2000/svg"
   xmlns="http://www.w3.org/2000/svg"
   xmlns:sodipodi="http://sodipodi.sourceforge.net/DTD/sodipodi-0.dtd"
   xmlns:inkscape="http://www.inkscape.org/namespaces/inkscape"
   width="172.93427"
   height="309.15085"
   id="svg3045"
   version="1.1"
   inkscape:version="0.48.4 r9939"
   sodipodi:docname="axe.svg"
   inkscape:export-filename="C:\Users\Sindre\Documents\GitHub\ggj14prometheus\Assets\axe.png"
   inkscape:export-xdpi="90"
   inkscape:export-ydpi="90">
  <defs
     id="defs3047" />
  <sodipodi:namedview
     id="base"
     pagecolor="#ffffff"
     bordercolor="#666666"
     borderopacity="1.0"
     inkscape:pageopacity="0.0"
     inkscape:pageshadow="2"
     inkscape:zoom="0.35"
     inkscape:cx="-105.67572"
     inkscape:cy="-181.13888"
     inkscape:document-units="px"
     inkscape:current-layer="layer1"
     showgrid="false"
     inkscape:window-width="1366"
     inkscape:window-height="716"
     inkscape:window-x="-8"
     inkscape:window-y="-8"
     inkscape:window-maximized="1"
     fit-margin-top="0"
     fit-margin-left="0"
     fit-margin-right="0"
     fit-margin-bottom="0" />
  <metadata
     id="metadata3050">
    <rdf:RDF>
      <cc:Work
         rdf:about="">
        <dc:format>image/svg+xml</dc:format>
        <dc:type
           rdf:resource="http://purl.org/dc/dcmitype/StillImage" />
        <dc:title></dc:title>
      </cc:Work>
    </rdf:RDF>
  </metadata>
  <g
     inkscape:groupmode="layer"
     id="layer5"
     inkscape:label="bg"
     sodipodi:insensitive="true"
     style="display:none"
     transform="translate(-34.961439,-42.07245)">
    <rect
       style="fill:#ff00ff"
       id="rect3061"
       width="1120"
       height="1202.8572"
       x="-171.42857"
       y="-81.923531" />
  </g>
  <g
     inkscape:label="Layer 1"
     inkscape:groupmode="layer"
     id="layer1"
     transform="translate(-34.961439,-42.07245)">
    <path
       style="fill:#ffffff;stroke:none"
       d="m 99.832947,176.10936 c 0,0 -14.507362,0.802 -11.409097,-33.45673 0.968781,-10.71222 27.51606,-19.93167 27.51606,-19.93167 l 0,204.29961 -3.35561,17.79613 7.38236,6.4066 10.73797,-4.98291 -2.68449,-17.08428 -0.67112,-205.7233 c 0,0 16.10696,-1.42369 25.50269,17.79613 9.39573,19.21982 -8.05348,33.45673 -8.05348,33.45673 0,0 8.05348,18.50798 44.96528,-14.23691 36.91179,-32.74488 6.04011,-93.963574 6.04011,-93.963574 0,0 -24.16045,-27.050124 -30.20056,-24.202742 -6.04011,2.847381 10.06685,8.542145 -9.39574,26.338275 -19.46257,17.796135 -18.12033,9.965835 -18.12033,9.965835 l -6.71123,0.711846 0,-13.52506 -16.77809,-1.423694 -2.6845,14.236908 c 0,0 -10.06685,8.542145 -26.173818,-7.830299 -16.106967,-16.372442 -6.04011,-28.473811 -6.04011,-28.473811 0,0 -28.858314,2.135536 -43.623033,56.947624 -11.281377,73.553552 66.852241,86.439712 63.756738,76.879292 z"
       id="path3015"
       inkscape:connector-curvature="0"
       sodipodi:nodetypes="cscccccccscscsscccccsccc" />
  </g>
</svg>
