<?xml version="1.0" encoding="UTF-8" standalone="no"?>
<!-- Created with Inkscape (http://www.inkscape.org/) -->

<svg
   xmlns:dc="http://purl.org/dc/elements/1.1/"
   xmlns:cc="http://creativecommons.org/ns#"
   xmlns:rdf="http://www.w3.org/1999/02/22-rdf-syntax-ns#"
   xmlns:svg="http://www.w3.org/2000/svg"
   xmlns="http://www.w3.org/2000/svg"
   xmlns:sodipodi="http://sodipodi.sourceforge.net/DTD/sodipodi-0.dtd"
   xmlns:inkscape="http://www.inkscape.org/namespaces/inkscape"
   width="336.80692"
   height="165.51978"
   id="svg2"
   version="1.1"
   inkscape:version="0.92.4 5da689c313, 2019-01-14"
   sodipodi:docname="spike.svg"
   inkscape:export-filename="C:\Users\johan\Documents\ggj14test\Assets\spike.png"
   inkscape:export-xdpi="90"
   inkscape:export-ydpi="90">
  <defs
     id="defs4" />
  <sodipodi:namedview
     id="base"
     pagecolor="#ffffff"
     bordercolor="#666666"
     borderopacity="1.0"
     inkscape:pageopacity="0.0"
     inkscape:pageshadow="2"
     inkscape:zoom="2.8"
     inkscape:cx="123.81003"
     inkscape:cy="48.997274"
     inkscape:document-units="px"
     inkscape:current-layer="layer1"
     showgrid="false"
     inkscape:window-width="1920"
     inkscape:window-height="1013"
     inkscape:window-x="0"
     inkscape:window-y="27"
     inkscape:window-maximized="1"
     fit-margin-top="0"
     fit-margin-left="0"
     fit-margin-right="0"
     fit-margin-bottom="0" />
  <metadata
     id="metadata7">
    <rdf:RDF>
      <cc:Work
         rdf:about="">
        <dc:format>image/svg+xml</dc:format>
        <dc:type
           rdf:resource="http://purl.org/dc/dcmitype/StillImage" />
        <dc:title />
      </cc:Work>
    </rdf:RDF>
  </metadata>
  <g
     inkscape:groupmode="layer"
     id="layer2"
     inkscape:label="blacklayer"
     sodipodi:insensitive="true"
     style="display:none">
    <rect
       style="fill:#000000"
       id="rect3004"
       width="494.97476"
       height="268.70059"
       x="-63.63961"
       y="-47.622414" />
  </g>
  <g
     inkscape:label="Layer 1"
     inkscape:groupmode="layer"
     id="layer1"
     transform="translate(-3.0827946,-3.5263237)">
    <path
       style="fill:#ffffff"
       d="m 91.008102,164.37542 c -0.972271,-0.12067 -4.836105,-0.57154 -8.586296,-1.00195 C 66.870831,161.58871 53.162357,158.9384 38.024795,154.79005 27.390629,151.87583 5.876109,144.12372 8.0992844,144.00731 c 0.3747178,-0.0196 5.4886156,0.86793 11.3642156,1.97235 23.445129,4.4069 31.977257,5.36211 53.866933,6.03064 26.016352,0.79457 40.174627,-0.7659 56.907597,-6.27216 22.08805,-7.26843 38.2717,-20.12262 47.31045,-37.57728 7.36023,-14.213291 9.66836,-26.068447 9.64656,-49.547119 -0.0119,-12.825694 -0.1757,-16.024662 -1.17668,-22.980971 -0.91201,-6.33811 -4.73387,-26.3920526 -6.37701,-33.4613026 l -0.26414,-1.1364216 78.03428,0 78.03429,0 0.33642,1.3404202 c 0.4773,1.9017194 -0.67217,15.839129 -1.81475,22.003921 -7.51745,40.560485 -37.65594,78.085353 -84.07454,104.679593 -32.9788,18.89428 -77.85735,32.42579 -114.69063,34.58083 -9.4445,0.55257 -41.385262,1.08423 -44.194178,0.73561 z"
       id="path3006"
       inkscape:connector-curvature="0"
       inkscape:export-xdpi="90"
       inkscape:export-ydpi="90"
       transform="translate(3.0827946,3.5263237)" />
  </g>
</svg>
